[img]http://a.imageshack.us/img843/5316/stepup3dy.jpg[/img]
[code]

Step.Up.3D.2010.TS.XVID-Boobies

Audio : ENGLISH LINE
 
http://www.imdb.com/title/tt1193631

Complete name                    :step.up.3.t,s.2010.avi.boobies
Format                           : AVI
Format/Info                      : Audio Video Interleave
File size                        : 748 MiB
Duration                         : 1h 38mn
Overall bit rate                 : 1 060 Kbps
Writing application              : VirtualDubMod 1.5.10.2 (build 2540/release)
Writing library                  : VirtualDub build 32706/release

Video
ID                               : 0
Format                           : MPEG-4 Visual
Format profile                   : Advanced Simple@L5
Format settings, BVOP            : Yes
Format settings, QPel            : No
Format settings, GMC             : No warppoints
Format settings, Matrix          : Default (H.263)
Codec ID                         : XVID
Codec ID/Hint                    : XviD
Duration                         : 1h 38mn
Bit rate                         : 922 Kbps
Width                            : 640 pixels
Height                           : 304 pixels
Display aspect ratio             : 2.2:1
Frame rate                       : 25.000 fps
Color space                      : YUV
Chroma subsampling               : 4:2:0
Bit depth                        : 8 bits
Scan type                        : Progressive
Bits/(Pixel*Frame)               : 0.190
Stream size                      : 651 MiB (87%)
Writing library                  : XviD 1.2.1 (UTC 2008-12-04)

Audio
ID                               : 1
Format                           : MPEG Audio ENGLISH LINE
Format version                   : Version 1
Format profile                   : Layer 3
Mode                             : Joint stereo
Mode extension                   : MS Stereo
Codec ID                         : 55
Codec ID/Hint                    : MP3
Duration                         : 1h 38mn
Bit rate mode                    : Constant
Bit rate                         : 128 Kbps
Channel(s)                       : 2 channels
Sampling rate                    : 48.0 KHz
Stream size                      : 90.4 MiB (12%)
Alignment                        : Split accross interleaves
Interleave, duration             : 40 ms (1.00 video frame)
Interleave, preload duration     : 500 ms
       
                 notes

big thanks to lu for syncing the audio great job
and thanks to big noob for the sweet line audio
thanks to EPIDEMZ for video

Enjoy
[/code]
Screens:
[img]http://a.imageshack.us/img683/6086/bgviv.png[/img]
[img]http://a.imageshack.us/img525/6057/54137726.png[/img]
[img]http://a.imageshack.us/img829/7440/97901854.png[/img]